<?xml version="1.0" encoding="UTF-8"?>
<svg width="27px" height="22px" viewBox="0 0 27 22" version="1.1" xmlns="http://www.w3.org/2000/svg" xmlns:xlink="http://www.w3.org/1999/xlink">
    <!-- Generator: Sketch 63.1 (92452) - https://sketch.com -->
    <title>Path 6</title>
    <desc>Created with Sketch.</desc>
    <g id="Page-1" stroke="none" stroke-width="1" fill="none" fill-rule="evenodd">
        <g id="Artboard" transform="translate(-1052.000000, -128.000000)" fill="#FFFFFF" fill-rule="nonzero">
            <path d="M1061.82031,139.753906 C1063.30859,139.753906 1064.05859,140.503906 1064.05859,142.039062 L1064.05859,142.039062 L1064.05859,147.289062 C1064.05859,148.835938 1063.30859,149.574219 1061.82031,149.574219 L1061.82031,149.574219 L1054.23828,149.574219 C1052.75,149.574219 1052,148.835938 1052,147.289062 L1052,147.289062 L1052,142.039062 C1052,140.503906 1052.75,139.753906 1054.23828,139.753906 L1054.23828,139.753906 Z M1075.82422,139.753906 C1077.3125,139.753906 1078.0625,140.503906 1078.0625,142.039062 L1078.0625,142.039062 L1078.0625,147.289062 C1078.0625,148.835938 1077.3125,149.574219 1075.82422,149.574219 L1075.82422,149.574219 L1068.24219,149.574219 C1066.75391,149.574219 1066.00391,148.835938 1066.00391,147.289062 L1066.00391,147.289062 L1066.00391,142.039062 C1066.00391,140.503906 1066.75391,139.753906 1068.24219,139.753906 L1068.24219,139.753906 Z M1061.78516,141.40625 L1054.26172,141.40625 C1053.85156,141.40625 1053.65234,141.617188 1053.65234,142.050781 L1053.65234,142.050781 L1053.65234,147.289062 C1053.65234,147.710938 1053.85156,147.921875 1054.26172,147.921875 L1054.26172,147.921875 L1061.78516,147.921875 C1062.19531,147.921875 1062.40625,147.710938 1062.40625,147.289062 L1062.40625,147.289062 L1062.40625,142.050781 C1062.40625,141.617188 1062.19531,141.40625 1061.78516,141.40625 L1061.78516,141.40625 Z M1075.80078,141.40625 L1068.27734,141.40625 C1067.85547,141.40625 1067.65625,141.617188 1067.65625,142.050781 L1067.65625,142.050781 L1067.65625,147.289062 C1067.65625,147.710938 1067.85547,147.921875 1068.27734,147.921875 L1068.27734,147.921875 L1075.80078,147.921875 C1076.21094,147.921875 1076.41016,147.710938 1076.41016,147.289062 L1076.41016,147.289062 L1076.41016,142.050781 C1076.41016,141.617188 1076.21094,141.40625 1075.80078,141.40625 L1075.80078,141.40625 Z M1061.82031,128 C1063.30859,128 1064.05859,128.738281 1064.05859,130.285156 L1064.05859,130.285156 L1064.05859,135.523438 C1064.05859,137.070312 1063.30859,137.820312 1061.82031,137.820312 L1061.82031,137.820312 L1054.23828,137.820312 C1052.75,137.820312 1052,137.070312 1052,135.523438 L1052,135.523438 L1052,130.285156 C1052,128.738281 1052.75,128 1054.23828,128 L1054.23828,128 Z M1075.82422,128 C1077.3125,128 1078.0625,128.738281 1078.0625,130.285156 L1078.0625,130.285156 L1078.0625,135.523438 C1078.0625,137.070312 1077.3125,137.820312 1075.82422,137.820312 L1075.82422,137.820312 L1068.24219,137.820312 C1066.75391,137.820312 1066.00391,137.070312 1066.00391,135.523438 L1066.00391,135.523438 L1066.00391,130.285156 C1066.00391,128.738281 1066.75391,128 1068.24219,128 L1068.24219,128 Z M1061.78516,129.652344 L1054.26172,129.652344 C1053.85156,129.652344 1053.65234,129.863281 1053.65234,130.285156 L1053.65234,130.285156 L1053.65234,135.523438 C1053.65234,135.957031 1053.85156,136.167969 1054.26172,136.167969 L1054.26172,136.167969 L1061.78516,136.167969 C1062.19531,136.167969 1062.40625,135.957031 1062.40625,135.523438 L1062.40625,135.523438 L1062.40625,130.285156 C1062.40625,129.863281 1062.19531,129.652344 1061.78516,129.652344 L1061.78516,129.652344 Z M1075.80078,129.652344 L1068.27734,129.652344 C1067.85547,129.652344 1067.65625,129.863281 1067.65625,130.285156 L1067.65625,130.285156 L1067.65625,135.523438 C1067.65625,135.957031 1067.85547,136.167969 1068.27734,136.167969 L1068.27734,136.167969 L1075.80078,136.167969 C1076.21094,136.167969 1076.41016,135.957031 1076.41016,135.523438 L1076.41016,135.523438 L1076.41016,130.285156 C1076.41016,129.863281 1076.21094,129.652344 1075.80078,129.652344 L1075.80078,129.652344 Z" id="Path-6"></path>
        </g>
    </g>
</svg>