<?xml version="1.0" encoding="UTF-8"?>
<svg width="24px" height="25px" viewBox="0 0 24 25" version="1.1" xmlns="http://www.w3.org/2000/svg" xmlns:xlink="http://www.w3.org/1999/xlink">
    <!-- Generator: Sketch 61 (89581) - https://sketch.com -->
    <title>Path 3</title>
    <desc>Created with Sketch.</desc>
    <g id="Page-1" stroke="none" stroke-width="1" fill="none" fill-rule="evenodd">
        <g id="Artboard" transform="translate(-1075.000000, -72.000000)" fill="#FFFFFF" fill-rule="nonzero">
            <path d="M1086.83984,72.796875 C1093.28516,72.796875 1098.60547,78.1171875 1098.60547,84.5507812 C1098.60547,90.984375 1093.28516,96.3046875 1086.85156,96.3046875 C1080.41797,96.3046875 1075.09766,90.984375 1075.09766,84.5507812 C1075.09766,78.1171875 1080.40625,72.796875 1086.83984,72.796875 Z M1086.83984,74.3203125 C1081.17969,74.3203125 1076.62109,78.8789062 1076.62109,84.5507812 C1076.62109,90.2226562 1081.17969,94.7929688 1086.85156,94.7929688 C1092.52344,94.7929688 1097.09375,90.2226562 1097.09375,84.5507812 C1097.08203,78.8789062 1092.51172,74.3203125 1086.83984,74.3203125 Z M1087.15625,82.265625 C1087.625,82.265625 1087.87109,82.59375 1087.87109,83.0742188 L1087.87109,83.0742188 L1087.87109,89.6367188 L1089.55859,89.6367188 C1089.93359,89.6367188 1090.22656,89.9296875 1090.22656,90.2929688 C1090.22656,90.65625 1089.93359,90.9375 1089.55859,90.9375 L1089.55859,90.9375 L1084.75391,90.9375 C1084.37891,90.9375 1084.08594,90.65625 1084.08594,90.2929688 C1084.08594,89.9296875 1084.37891,89.6367188 1084.75391,89.6367188 L1084.75391,89.6367188 L1086.44141,89.6367188 L1086.44141,83.5664062 L1084.90625,83.5664062 C1084.53125,83.5664062 1084.23828,83.2851562 1084.23828,82.9101562 C1084.23828,82.5585938 1084.53125,82.265625 1084.90625,82.265625 L1084.90625,82.265625 Z M1086.78125,77.5546875 C1087.50781,77.5546875 1088.07031,78.1289062 1088.07031,78.84375 C1088.07031,79.5585938 1087.50781,80.1210938 1086.78125,80.1210938 C1086.06641,80.1210938 1085.49219,79.5585938 1085.49219,78.84375 C1085.49219,78.1289062 1086.06641,77.5546875 1086.78125,77.5546875 Z" id="Path-3"></path>
        </g>
    </g>
</svg>