<?xml version="1.0" encoding="UTF-8"?>
<svg width="108px" height="21px" viewBox="0 0 108 21" version="1.1" xmlns="http://www.w3.org/2000/svg" xmlns:xlink="http://www.w3.org/1999/xlink">
    <!-- Generator: Sketch 63.1 (92452) - https://sketch.com -->
    <title>logo</title>
    <desc>Created with Sketch.</desc>
    <defs>
        <linearGradient x1="-5.64878066%" y1="50.1005686%" x2="94.2487807%" y2="50.1005686%" id="linearGradient-1">
            <stop stop-color="#376DF9" offset="0%"></stop>
            <stop stop-color="#D262B4" offset="46.208%"></stop>
            <stop stop-color="#FF8D74" offset="77.058%"></stop>
            <stop stop-color="#FFD4CA" offset="100%"></stop>
        </linearGradient>
    </defs>
    <g id="Page-1" stroke="none" stroke-width="1" fill="none" fill-rule="evenodd">
        <g id="Artboard" transform="translate(-80.000000, -80.000000)">
            <rect fill="#000000" x="0" y="0" width="1440" height="1024"></rect>
            <g id="logo" transform="translate(80.000000, 79.000000)" fill-rule="nonzero">
                <polygon id="Rectangle" fill="url(#linearGradient-1)" opacity="0.75" points="0 1 26 1 0 21"></polygon>
                <polygon id="Rectangle-Copy-2" fill="url(#linearGradient-1)" opacity="0.61437407" transform="translate(17.000000, 11.000000) scale(-1, 1) translate(-17.000000, -11.000000) " points="4 1 30 1 4 21"></polygon>
                <path d="M45.8310896,21.0801937 L45.8310896,7.81669734 L51.0889298,21.0801937 L52.4892591,21.0801937 L57.720678,7.81669734 L57.720678,21.0801937 L61.9745085,21.0801937 L61.9745085,2.18895884 L56.4260339,2.18895884 L52.0665182,13.9464407 L47.6541598,2.18895884 L42,2.18895884 L42,21.0801937 L45.8310896,21.0801937 Z M72.0938692,21.3708281 C73.9785892,21.3708281 75.4934108,20.9701049 76.6383341,20.1686586 C77.7832575,19.3672123 78.4702115,18.2178854 78.6991961,16.720678 L78.6991961,16.720678 L75.079477,16.720678 C74.8152639,18.0065149 73.8552897,18.6494334 72.1995545,18.6494334 C71.1603164,18.6494334 70.3412559,18.3323777 69.7423729,17.6982663 C69.1434899,17.064155 68.8176271,16.1746376 68.7647845,15.0297143 L68.7647845,15.0297143 L78.7256174,15.0297143 L78.7256174,13.972862 C78.7256174,11.6477869 78.0871025,9.89517353 76.8100726,8.71502179 C75.5330428,7.53487006 73.9257466,6.94479419 71.988184,6.94479419 C69.9449362,6.94479419 68.249569,7.60532688 66.9020823,8.92639225 C65.5545956,10.2474576 64.8808523,11.9824568 64.8808523,14.1313898 L64.8808523,14.1313898 L64.8808523,14.3427603 C64.8808523,16.5093075 65.5501921,18.2222889 66.8888717,19.4817046 C68.2275513,20.7411203 69.9625504,21.3708281 72.0938692,21.3708281 Z M75.0002131,12.6782179 L68.8176271,12.6782179 C68.9585408,11.6918224 69.3064213,10.9300081 69.8612688,10.3927748 C70.4161162,9.85554157 71.125088,9.58692494 71.988184,9.58692494 C73.872904,9.58692494 74.8769136,10.6173559 75.0002131,12.6782179 L75.0002131,12.6782179 Z M86.2556901,21.3708281 C88.1051816,21.3708281 89.5363358,20.9833156 90.5491525,20.2082906 C91.5619693,19.4332655 92.0683777,18.3059564 92.0683777,16.8263632 C92.0683777,15.434841 91.6412333,14.4308313 90.7869443,13.8143341 C89.9326554,13.197837 88.571958,12.7574818 86.7048523,12.4932688 C85.6832284,12.3523551 84.9830638,12.1762131 84.6043584,11.9648426 C84.2256529,11.7534722 84.0363002,11.4276094 84.0363002,10.9872542 C84.0363002,10.5645133 84.2080387,10.2210363 84.5515157,9.95682324 C84.8949927,9.69261017 85.3749798,9.56050363 85.991477,9.56050363 C87.2244713,9.56050363 87.9466538,10.1153511 88.1580242,11.225046 L88.1580242,11.225046 L91.6720581,11.225046 C91.3550024,8.37154479 89.4526683,6.94479419 85.9650557,6.94479419 C84.4502341,6.94479419 83.1599935,7.31909605 82.0943341,8.06769976 C81.0286747,8.81630347 80.495845,9.87755932 80.495845,11.2514673 C80.495845,12.5725327 80.878954,13.5501211 81.6451719,14.1842324 C82.4113898,14.8183438 83.7280517,15.2763132 85.5951574,15.5581404 C86.6167813,15.6990541 87.3389637,15.8928103 87.7617046,16.1394092 C88.1844455,16.3860081 88.395816,16.7382922 88.395816,17.1962615 C88.395816,18.2002712 87.6736336,18.702276 86.2292688,18.702276 C85.4366295,18.702276 84.8553608,18.5393446 84.4854625,18.2134818 C84.1155642,17.887619 83.8865795,17.3988249 83.7985085,16.7470993 L83.7985085,16.7470993 L80.231632,16.7470993 C80.3020888,18.2443067 80.8569362,19.38923 81.8961743,20.1818692 C82.9354124,20.9745085 84.3885843,21.3708281 86.2556901,21.3708281 Z M98.3302276,21.0801937 L98.3302276,13.1009588 C98.3302276,12.1145634 98.5944407,11.3615561 99.1228668,10.841937 C99.651293,10.322318 100.347054,10.0625085 101.21015,10.0625085 C102.055632,10.0625085 102.672129,10.2870896 103.059642,10.7362518 C103.447154,11.185414 103.64091,11.8855787 103.64091,12.8367458 L103.64091,12.8367458 L103.64091,21.0801937 L107.472,21.0801937 L107.472,12.2818983 C107.472,10.5028636 107.053663,9.16858757 106.216988,8.27907022 C105.380313,7.38955287 104.2486,6.94479419 102.82185,6.94479419 C101.729769,6.94479419 100.80062,7.17818241 100.034402,7.64495884 C99.268184,8.11173527 98.7001259,8.71502179 98.3302276,9.4548184 L98.3302276,9.4548184 L98.3302276,1 L94.499138,1 L94.499138,21.0801937 L98.3302276,21.0801937 Z" id="Mesh" fill="#FFD6CC"></path>
            </g>
        </g>
    </g>
</svg>