<?xml version="1.0" encoding="UTF-8"?>
<svg width="21px" height="26px" viewBox="0 0 21 26" version="1.1" xmlns="http://www.w3.org/2000/svg" xmlns:xlink="http://www.w3.org/1999/xlink">
    <!-- Generator: Sketch 63.1 (92452) - https://sketch.com -->
    <title>Path</title>
    <desc>Created with Sketch.</desc>
    <g id="Page-1" stroke="none" stroke-width="1" fill="none" fill-rule="evenodd">
        <g id="Artboard" transform="translate(-995.000000, -88.000000)" fill="#D8D8D8">
            <path d="M1005.02344,88.5234375 C1005.25781,88.5234375 1005.45964,88.5885417 1005.61534,88.71875 L1005.70312,88.8046875 L1010.53125,93.703125 C1010.71875,93.890625 1010.82422,94.1484375 1010.82422,94.40625 C1010.82422,94.6372768 1010.76395,94.8424745 1010.6139,95.0218431 L1010.53125,95.109375 L1005.70312,99.9609375 C1005.53906,100.136719 1005.31641,100.230469 1005.02344,100.230469 C1004.49609,100.230469 1004.09766,99.8320312 1004.09766,99.2929688 C1004.09766,99.0878906 1004.16276,98.8909505 1004.28619,98.7224935 L1004.36719,98.625 L1007.87109,95.1445312 C1007.16797,94.9921875 1006.34766,94.921875 1005.45703,94.921875 C1000.75781,94.921875 996.984375,98.6835938 996.984375,103.382812 C996.984375,108.09375 1000.75781,111.867188 1005.45703,111.867188 C1010.15625,111.867188 1013.91797,108.09375 1013.91797,103.382812 C1013.91797,102.820312 1014.28125,102.410156 1014.83203,102.410156 C1015.40625,102.410156 1015.80469,102.820312 1015.80469,103.382812 C1015.80469,109.136719 1011.19922,113.753906 1005.45703,113.753906 C999.714844,113.753906 995.097656,109.136719 995.097656,103.382812 C995.097656,97.640625 999.714844,93.0351562 1005.45703,93.0351562 C1006.00078,93.0351562 1006.54453,93.0801562 1007.08228,93.1581562 L1007.48438,93.2226562 L1004.35547,90.1523438 C1004.19141,89.9648438 1004.09766,89.7304688 1004.09766,89.484375 C1004.09766,88.9453125 1004.49609,88.5234375 1005.02344,88.5234375 Z" id="Path"></path>
        </g>
    </g>
</svg>