<?xml version="1.0" encoding="UTF-8"?>
<svg width="22px" height="25px" viewBox="0 0 22 25" version="1.1" xmlns="http://www.w3.org/2000/svg" xmlns:xlink="http://www.w3.org/1999/xlink">
    <!-- Generator: Sketch 61 (89581) - https://sketch.com -->
    <title>Path 4</title>
    <desc>Created with Sketch.</desc>
    <g id="Page-1" stroke="none" stroke-width="1" fill="none" fill-rule="evenodd">
        <g id="Artboard" transform="translate(-972.000000, -70.000000)" fill="#FFFFFF" fill-rule="nonzero">
            <path d="M984.943359,70.5253906 C986.490234,70.5253906 987.489258,71.4921875 987.489258,72.9101562 L987.489258,72.9101562 L987.489258,74.5966797 L992.570312,74.5966797 C992.914062,74.5966797 993.182617,74.8759766 993.182617,75.2197266 C993.182617,75.5634766 992.914062,75.8427734 992.570312,75.8427734 L992.570312,75.8427734 L991.023438,75.8427734 L990.228516,91.8808594 C990.164062,93.2558594 989.175781,94.2011719 987.790039,94.2011719 L987.790039,94.2011719 L978.046875,94.2011719 C976.650391,94.2011719 975.683594,93.2558594 975.608398,91.8808594 L975.608398,91.8808594 L974.813477,75.8427734 L973.266602,75.8427734 C972.933594,75.8427734 972.643555,75.5634766 972.643555,75.2197266 C972.643555,74.8867188 972.933594,74.5966797 973.266602,74.5966797 L973.266602,74.5966797 L978.336914,74.5966797 L978.336914,72.9101562 C978.336914,71.4921875 979.325195,70.5253906 980.87207,70.5253906 L980.87207,70.5253906 Z M989.702148,75.8427734 L976.113281,75.8427734 L976.908203,91.7412109 C976.94043,92.4287109 977.477539,92.9550781 978.154297,92.9550781 L978.154297,92.9550781 L987.682617,92.9550781 C988.370117,92.9550781 988.907227,92.4287109 988.939453,91.7412109 L988.939453,91.7412109 L989.702148,75.8427734 Z M986.479492,78.0126953 C986.780273,78.0126953 986.995117,78.2597656 986.984375,78.5712891 L986.984375,78.5712891 L986.640625,90.3125 C986.629883,90.6240234 986.415039,90.8496094 986.125,90.8496094 C985.834961,90.8496094 985.630859,90.6025391 985.630859,90.2910156 L985.630859,90.2910156 L985.985352,78.5605469 C985.985352,78.2597656 986.210938,78.0126953 986.479492,78.0126953 Z M979.34668,78.0126953 C979.615234,78.0126953 979.851562,78.2597656 979.851562,78.5605469 L979.851562,78.5605469 L980.206055,90.2910156 C980.216797,90.6025391 980.001953,90.8496094 979.711914,90.8496094 C979.421875,90.8496094 979.217773,90.6240234 979.207031,90.3125 L979.207031,90.3125 L978.852539,78.5712891 C978.841797,78.2490234 979.056641,78.0126953 979.34668,78.0126953 Z M982.923828,78.0126953 C983.203125,78.0126953 983.439453,78.2597656 983.439453,78.5712891 L983.439453,78.5712891 L983.439453,90.3017578 C983.439453,90.6025391 983.203125,90.8496094 982.923828,90.8496094 C982.644531,90.8496094 982.408203,90.6025391 982.408203,90.3017578 L982.408203,90.3017578 L982.408203,78.5712891 C982.408203,78.2597656 982.644531,78.0126953 982.923828,78.0126953 Z M984.868164,71.7607422 L980.958008,71.7607422 C980.173828,71.7607422 979.658203,72.2763672 979.658203,72.9746094 L979.658203,72.9746094 L979.658203,74.5966797 L986.178711,74.5966797 L986.178711,72.9746094 C986.178711,72.2763672 985.641602,71.7607422 984.868164,71.7607422 L984.868164,71.7607422 Z" id="Path-4"></path>
        </g>
    </g>
</svg>